<?xml version="1.0" encoding="UTF-8"?>
<svg version="1.1" xmlns="http://www.w3.org/2000/svg" width="500" height="500">
<path d="M0 0 C1.56989164 0.45962272 3.14004483 0.91835297 4.71044922 1.3762207 C14.93549778 4.36973043 25.12536054 7.4790551 35.29394531 10.65893555 C43.93813626 13.35081507 52.64043475 15.80411527 61.38330078 18.1550293 C75.63981778 22.04284752 75.63981778 22.04284752 78.22175598 26.12039185 C79.73374803 29.93166422 80.0031632 33.21482537 79.99487305 37.24951172 C80.0050647 38.00141281 80.01525635 38.7533139 80.02575684 39.52799988 C80.05577587 41.99530597 80.06513552 44.46222313 80.07421875 46.9296875 C80.09107371 48.64748412 80.10922505 50.36526847 80.12861633 52.08303833 C80.17603389 56.59074061 80.20589646 61.09839312 80.23205566 65.60626221 C80.26190288 70.21156643 80.3084189 74.81669932 80.35351562 79.421875 C80.43945487 88.44782689 80.50684179 97.47381413 80.5625 106.5 C87.27712139 107.68798642 93.99193623 108.87487513 100.70684814 110.06121826 C104.23876165 110.68551353 107.7705062 111.31075854 111.30224609 111.93603516 C126.18761455 114.56960849 126.18761455 114.56960849 141.08984375 117.10546875 C141.76502548 117.2186998 142.44020721 117.33193085 143.135849 117.44859314 C146.1044492 117.94614224 149.07378696 118.43709236 152.0456543 118.91479492 C165.53725479 121.16499543 165.53725479 121.16499543 169.5625 123.5 C172.07140711 127.02719669 172.93790993 129.46218972 172.94281673 133.77086639 C172.95125668 134.81927342 172.95969662 135.86768044 172.96839231 136.94785738 C172.96238227 138.09327611 172.95637222 139.23869485 172.95018005 140.41882324 C172.95825836 142.25141292 172.95825836 142.25141292 172.96649987 144.12102461 C172.97833521 147.50931564 172.97670626 150.89711512 172.96933305 154.2853868 C172.96460668 157.94053039 172.97710645 161.59562101 172.98735046 165.25074768 C173.00455368 172.40997761 173.00537541 179.56911983 173.00013756 186.72836506 C172.99609781 192.54629032 172.99753709 198.36418963 173.00288582 204.18211365 C173.00363424 205.00982559 173.00438266 205.83753754 173.00515376 206.69033167 C173.00668522 208.37175835 173.00822357 210.05318502 173.00976873 211.73461169 C173.02349903 227.50517694 173.01805214 243.2756926 173.00658352 259.04625672 C172.99664838 273.47913064 173.0095957 287.91187641 173.03351771 302.34473056 C173.05788967 317.16051893 173.06752141 331.97624758 173.06086498 346.79205561 C173.0573688 355.11160668 173.05963118 363.43105915 173.07711601 371.75059509 C173.09181414 378.83206276 173.09250477 385.91336239 173.0750451 392.99482667 C173.06651328 396.60866166 173.06443831 400.22219613 173.07969666 403.8360157 C173.09602311 407.75122446 173.08144127 411.66596598 173.06370544 415.58117676 C173.07331045 416.72659549 173.08291546 417.87201423 173.09281152 419.05214262 C173.0209257 426.73131263 173.0209257 426.73131263 170.67247105 430.66919708 C168.38522925 432.65381623 166.63724743 433.60170245 163.765625 434.54296875 C162.30672852 435.02515869 162.30672852 435.02515869 160.81835938 435.51708984 C155.35392736 437.16674516 149.87193717 438.74105613 144.36706543 440.24926758 C140.84602285 441.21451566 137.32908438 442.19443345 133.8125 443.17578125 C133.11227722 443.37108429 132.41205444 443.56638733 131.69061279 443.76760864 C122.61765508 446.30962962 113.61373609 449.07841908 104.62011719 451.88671875 C95.52198907 454.59845319 88.60609298 452.99478427 79.5625 450.5 C79.500625 451.4075 79.43875 452.315 79.375 453.25 C78.33618488 457.40526047 77.18822042 458.28508447 73.5625 460.5 C70.86243864 461.54890324 68.2685038 462.43827822 65.5 463.25 C64.66968262 463.50257568 63.83936523 463.75515137 62.98388672 464.01538086 C54.93744898 466.44102674 46.85394044 468.74886756 38.7644043 471.02612305 C31.85008987 472.97417274 24.95368367 474.97077016 18.07174683 477.03065491 C14.00451912 478.2468532 9.93383155 479.45125152 5.86297607 480.65524292 C3.84023171 481.25683726 1.81908105 481.8638181 -0.20037842 482.47634888 C-3.06186413 483.34347562 -5.92851462 484.19109423 -8.796875 485.03515625 C-9.65107025 485.29929321 -10.5052655 485.56343018 -11.38534546 485.83557129 C-19.02351891 488.04720311 -24.82298714 487.14870275 -32.453125 484.890625 C-33.60006836 484.55458252 -34.74701172 484.21854004 -35.92871094 483.87231445 C-37.16911133 483.50195068 -38.40951172 483.13158691 -39.6875 482.75 C-41.02100342 482.35648786 -42.35466742 481.96351956 -43.68847656 481.57104492 C-46.63449268 480.70298343 -49.57930642 479.83097572 -52.5234375 478.95654297 C-56.91832172 477.65217475 -61.31635263 476.3587031 -65.71514893 475.06759644 C-69.58314186 473.93224541 -73.45051099 472.79477977 -77.31774902 471.65686035 C-79.20054273 471.10289021 -81.08343339 470.54924946 -82.96643066 469.99597168 C-92.32415736 467.24409352 -101.66234104 464.45122776 -110.953125 461.48046875 C-119.2576077 458.82859849 -127.61812923 456.41166205 -136.00634766 454.04003906 C-144.44443291 451.65427034 -152.85871496 449.18703495 -161.27124023 446.71289062 C-163.19284671 446.14868895 -165.115061 445.58655376 -167.0378418 445.02636719 C-169.8847082 444.19677869 -172.72962664 443.36078663 -175.57421875 442.5234375 C-176.41917404 442.27854584 -177.26412933 442.03365417 -178.13468933 441.78134155 C-182.41835074 440.51264941 -186.66415679 439.14072671 -190.86645508 437.62353516 C-191.67077469 437.33757477 -192.4750943 437.05161438 -193.30378723 436.75698853 C-196.15096703 435.07969044 -196.98243304 433.4598508 -198.4375 430.5 C-198.81354749 427.46101379 -198.81354749 427.46101379 -198.81502342 423.99536133 C-198.81938374 423.35288484 -198.82374407 422.71040834 -198.82823652 422.04846287 C-198.83919641 419.89277111 -198.82876791 417.73771848 -198.81845093 415.58203125 C-198.82190721 414.02210157 -198.82667158 412.46217432 -198.83263266 410.9022522 C-198.84517636 406.6133408 -198.838957 402.32462921 -198.82967401 398.03571701 C-198.82289763 393.41124862 -198.83335773 388.78681504 -198.84161377 384.16235352 C-198.85496839 375.10210991 -198.85206567 366.04194077 -198.84337585 356.98169422 C-198.83660651 349.61962586 -198.83567933 342.25757839 -198.8389473 334.89550781 C-198.839407 333.84854233 -198.83986669 332.80157684 -198.84034032 331.72288513 C-198.84129948 329.59613545 -198.84227212 327.46938578 -198.8432581 325.34263611 C-198.85181706 305.39019698 -198.84196992 285.43779917 -198.825857 265.48536682 C-198.81245336 248.35741135 -198.81478131 231.22951687 -198.82861328 214.1015625 C-198.84466016 194.2215474 -198.85099304 174.34156853 -198.84177649 154.46154785 C-198.84082082 152.3425293 -198.83987771 150.22351075 -198.8389473 148.10449219 C-198.83848447 147.06183701 -198.83802164 146.01918182 -198.83754479 144.94493103 C-198.83495222 137.58990613 -198.83933164 130.23490416 -198.84638596 122.87988281 C-198.85479124 113.91914584 -198.8525413 104.95848773 -198.83654372 95.99775982 C-198.82864791 91.42400966 -198.82559168 86.85039109 -198.83549118 82.27664185 C-198.84441151 78.09206438 -198.83954936 73.90774083 -198.82355852 69.72318649 C-198.8201994 68.20710883 -198.82193011 66.69100985 -198.82918589 65.17494583 C-198.8382779 63.11786961 -198.82898396 61.06166883 -198.81502342 59.00463867 C-198.81453637 57.86097336 -198.81404931 56.71730804 -198.81354749 55.53898621 C-198.39190813 52.13155432 -197.45320391 50.2522237 -195.4375 47.5 C-189.14615257 43.2376802 -180.6413428 41.60265678 -173.4375 39.5 C-172.1427562 39.11711607 -170.84816442 38.73371778 -169.55371094 38.34985352 C-165.18443948 37.05696798 -160.81123369 35.77769573 -156.4375 34.5 C-155.62627686 34.26287292 -154.81505371 34.02574585 -153.97924805 33.78143311 C-149.65280715 32.51682132 -145.32617754 31.25285566 -140.99951172 29.98901367 C-140.12421814 29.73332611 -139.24892456 29.47763855 -138.34710693 29.21420288 C-136.57133285 28.69561164 -134.79549441 28.17724072 -133.01959229 27.65908813 C-119.41702896 23.68942044 -105.85608882 19.60688694 -92.32568359 15.39697266 C-79.31424599 11.35605788 -66.28343207 7.39502103 -53.16577148 3.71191406 C-48.75391066 2.4687583 -44.36596188 1.17716415 -39.99609375 -0.20703125 C-39.10559326 -0.48603271 -38.21509277 -0.76503418 -37.29760742 -1.05249023 C-35.61855823 -1.58160039 -33.94260411 -2.12068998 -32.27075195 -2.67211914 C-20.67592744 -6.30580743 -11.28806987 -3.37401218 0 0 Z M80.5625 211.5 C78.73457011 213.32792989 79.43980995 215.87583153 79.43341869 218.30864722 C79.43633153 219.15007015 79.43924437 219.99149309 79.44224548 220.8584137 C79.44139106 221.74539898 79.44053663 222.63238427 79.43965632 223.5462479 C79.43799879 226.54200106 79.44352733 229.5376992 79.44897461 232.53344727 C79.44925645 234.6714986 79.44909881 236.80955004 79.4485321 238.94760132 C79.448244 244.77174493 79.45414278 250.59586814 79.46110606 256.42000699 C79.46733749 262.49923682 79.46794323 268.57846706 79.46913147 274.65769958 C79.47224541 286.17848498 79.48045964 297.69926094 79.49048096 309.22004217 C79.50164015 322.33226929 79.50715206 335.44449685 79.51217639 348.55672753 C79.52264221 375.53782359 79.54024286 402.51891127 79.5625 429.5 C81.2125 429.83 82.8625 430.16 84.5625 430.5 C84.5625 358.23 84.5625 285.96 84.5625 211.5 C83.2425 211.5 81.9225 211.5 80.5625 211.5 Z " fill="#11100E" transform="translate(266.4375,9.5)"/>
<path d="M0 0 C0.04573242 56.01935171 0.08099629 112.03870157 0.10213066 168.05806827 C0.10463221 174.66485153 0.10722084 181.27163476 0.10986328 187.87841797 C0.1103879 189.19376385 0.11091252 190.50910973 0.11145304 191.86431457 C0.12016643 213.18957409 0.13594152 234.51482058 0.15430559 255.84007393 C0.1729787 277.70582286 0.18411123 299.57156616 0.18817699 321.43732274 C0.19092744 334.94028206 0.19962855 348.44321105 0.21583293 361.94616105 C0.2263679 371.1933459 0.22960858 380.44051496 0.22700275 389.68770538 C0.225716 395.03062702 0.22775093 400.37349549 0.23841095 405.71640778 C0.24808477 410.60042371 0.24867346 415.4843503 0.24179779 420.36837019 C0.24094698 422.14228547 0.24353359 423.91620614 0.24976636 425.69011067 C0.25770544 428.08760597 0.25352013 430.48477186 0.24609566 432.88226128 C0.25134968 433.58291924 0.25660371 434.28357721 0.26201695 435.00546724 C0.2282916 439.7717084 0.2282916 439.7717084 -2 442 C-11.73831803 443.16805488 -19.90696678 441.21692194 -29 438 C-31.90944925 437.03957875 -34.82891254 436.11184077 -37.75 435.1875 C-38.54180664 434.93532715 -39.33361328 434.6831543 -40.14941406 434.42333984 C-47.93445587 431.96899496 -55.79012336 429.78752993 -63.65576172 427.60839844 C-75.80225878 424.23777802 -87.87617828 420.65161847 -99.87963867 416.80224609 C-110.25703481 413.47594648 -120.71794607 410.51057681 -131.22265625 407.61328125 C-135.05005929 406.55093197 -138.8718121 405.4726801 -142.68359375 404.35546875 C-143.89680298 404.00005005 -143.89680298 404.00005005 -145.13452148 403.63745117 C-147 403 -147 403 -148 402 C-148.09766654 400.09216326 -148.12371322 398.180651 -148.12304783 396.27031612 C-148.12503888 395.01778606 -148.12702993 393.765256 -148.12908131 392.47477049 C-148.12622771 391.06675253 -148.12328211 389.65873476 -148.12025452 388.25071716 C-148.12069009 386.76905059 -148.12156473 385.28738409 -148.12284368 383.805718 C-148.12509141 379.71480261 -148.12106358 375.62391315 -148.11606562 371.53300107 C-148.11176527 367.12875118 -148.11320725 362.72450286 -148.1139679 358.32025146 C-148.1144934 350.68314197 -148.11134389 343.04604099 -148.10573006 335.40893364 C-148.09761857 324.36682588 -148.0950002 313.32472227 -148.09374207 302.28261185 C-148.09155099 284.36947653 -148.08488941 266.45634575 -148.07543945 248.54321289 C-148.06626676 231.13761416 -148.05918523 213.73201667 -148.05493164 196.32641602 C-148.05453756 194.71831298 -148.05453756 194.71831298 -148.05413551 193.07772302 C-148.05283051 187.69971208 -148.0515668 182.32170113 -148.05032361 176.94369018 C-148.03994927 132.29579031 -148.02232945 87.64789539 -148 43 C-146.29191162 42.49829285 -146.29191162 42.49829285 -144.54931641 41.9864502 C-143.02506226 41.53850253 -141.50081112 41.09054462 -139.9765625 40.64257812 C-139.22963135 40.42321594 -138.4827002 40.20385376 -137.71313477 39.97784424 C-130.46659666 37.84772377 -123.23259932 35.67698234 -116 33.5 C-105.34384091 30.29692352 -94.6800817 27.12237926 -84 24 C-74.99118876 21.36226537 -65.98960077 18.70255353 -57 16 C-42.43842009 11.62682071 -27.85785629 7.36604521 -13.20043945 3.32250977 C-12.1662085 3.03561279 -11.13197754 2.74871582 -10.06640625 2.453125 C-9.13771729 2.19692383 -8.20902832 1.94072266 -7.25219727 1.67675781 C-1.67207792 0 -1.67207792 0 0 0 Z " fill="#DEDEE5" transform="translate(236,28)"/>
<path d="M0 0 C11.24470971 0 11.24470971 0 15.92578125 1.5390625 C16.95928711 1.86938477 17.99279297 2.19970703 19.05761719 2.54003906 C20.13172852 2.89807617 21.20583984 3.25611328 22.3125 3.625 C24.61531417 4.36376219 26.91870868 5.10071763 29.22265625 5.8359375 C30.93219482 6.38652832 30.93219482 6.38652832 32.67626953 6.94824219 C37.50787259 8.47714963 42.37233239 9.87640656 47.25 11.25 C48.03286377 11.47123535 48.81572754 11.6924707 49.62231445 11.92041016 C51.13631855 12.3476362 52.65054292 12.7740827 54.1650238 13.19961548 C57.5505821 14.15544307 60.93305412 15.12183885 64.31542969 16.08886719 C65.56926453 16.44728699 66.82309937 16.80570679 68.1149292 17.17498779 C69.06700256 17.44724182 70.01907593 17.71949585 71 18 C71.00586624 18.97861496 71.01173248 19.95722992 71.01777649 20.96549988 C71.07500654 30.19112585 71.14776965 39.41651617 71.23571491 48.64190197 C71.28042934 53.38470445 71.31968312 58.12742082 71.34643555 62.87036133 C71.37245781 67.4481647 71.4128526 72.02563688 71.46318626 76.60323524 C71.47986227 78.34907217 71.49137198 80.0949664 71.49761391 81.84087181 C71.50724711 84.28774045 71.53529619 86.73376041 71.56762695 89.18041992 C71.56619186 89.90115189 71.56475677 90.62188385 71.5632782 91.36445618 C71.64494929 95.73907482 72.30214518 98.52909118 75 102 C78.09878553 104.06585702 79.72399577 104.47203675 83.328125 105.06567383 C84.4219751 105.24959183 85.5158252 105.43350983 86.64282227 105.6230011 C87.83319092 105.81573105 89.02355957 106.008461 90.25 106.20703125 C92.11192993 106.51793953 92.11192993 106.51793953 94.01147461 106.83512878 C97.33430195 107.38903285 100.65800213 107.93691753 103.98236084 108.48150635 C108.56650155 109.23353451 113.14906874 109.99504445 117.73144531 110.75773621 C120.16127445 111.16162059 122.59156266 111.56276052 125.02246094 111.9601593 C138.05581557 114.11519477 151.00102084 116.59278164 164 119 C164 210.08 164 301.16 164 395 C162.35 395 160.7 395 159 395 C159.33 395.99 159.66 396.98 160 398 C151.62132765 400.89826498 143.19177416 403.40931383 134.625 405.6875 C132.92150391 406.14866211 132.92150391 406.14866211 131.18359375 406.61914062 C126.12810503 407.97339522 121.16861616 409.16296842 116 410 C115.99503478 408.19518803 115.99503478 408.19518803 115.98996925 406.35391521 C115.91099918 377.8100861 115.82179744 349.26630115 115.71994839 320.72254474 C115.7074291 317.21143309 115.69499639 313.70032113 115.68261719 310.18920898 C115.6789182 309.1406836 115.6789182 309.1406836 115.67514448 308.07097588 C115.63539055 296.74366128 115.60265489 285.41633667 115.57250018 274.08899292 C115.54141676 262.47129036 115.50267198 250.85363223 115.45720994 239.23597699 C115.43191031 232.70833194 115.41013931 226.18071717 115.39665604 219.65303612 C115.38386708 213.51439081 115.36184708 207.37584919 115.33261681 201.23726082 C115.32351619 198.97933953 115.31784505 196.72140152 115.31578636 194.46346283 C115.31248133 191.3902923 115.29705178 188.31741893 115.2784729 185.24430847 C115.281375 183.89169341 115.281375 183.89169341 115.28433573 182.51175278 C115.27687024 181.69066507 115.26940475 180.86957736 115.26171303 180.02360821 C115.25943471 179.31391091 115.25715638 178.60421361 115.25480902 177.87301034 C115.0937497 175.66669196 115.0937497 175.66669196 113 173 C105.00453655 170.57327772 96.28619716 170.63494742 88 170.625 C86.89527344 170.60050781 85.79054688 170.57601562 84.65234375 170.55078125 C83.59144531 170.54691406 82.53054688 170.54304687 81.4375 170.5390625 C80.48746094 170.53084473 79.53742188 170.52262695 78.55859375 170.51416016 C75.02818225 171.1845341 74.1157554 172.07299477 72 175 C71.38976636 178.3051622 71.45383379 181.58102473 71.48101807 184.934021 C71.47351681 185.95424323 71.46601556 186.97446547 71.458287 188.02560353 C71.43793877 191.45444824 71.44612675 194.88263617 71.45410156 198.31152344 C71.44537047 200.76529091 71.43488632 203.21905267 71.42277527 205.67280579 C71.40063015 210.96082608 71.39071533 216.248654 71.39188385 221.53670502 C71.39355224 229.18230168 71.37322715 236.82771531 71.34752855 244.47326317 C71.30643229 256.87751158 71.28313078 269.2817271 71.27099609 281.68603516 C71.25917012 293.73587201 71.23897828 305.78564693 71.20751953 317.83544922 C71.20558343 318.57816022 71.20364733 319.32087123 71.20165256 320.08608863 C71.19188807 323.8120402 71.18195894 327.53799132 71.17194796 331.26394224 C71.08910578 362.17593486 71.03542882 393.08791494 71 424 C61.08789063 426.83203125 51.17578125 429.6640625 41.26367188 432.49609375 C40.19003387 432.80287048 39.11639587 433.10964722 38.01022339 433.42572021 C35.85200837 434.04230662 33.69374429 434.65872137 31.53543091 435.27496338 C26.26773599 436.77921845 21.00087494 438.28626396 15.73583984 439.79980469 C14.75838303 440.08036713 13.78092621 440.36092957 12.77384949 440.6499939 C10.92939214 441.17953246 9.08523144 441.71010572 7.2414093 442.24185181 C1.11224698 444 1.11224698 444 0 444 C0 297.48 0 150.96 0 0 Z " fill="#FEFEFE" transform="translate(255,30)"/>
<path d="M0 0 C0 145.2 0 290.4 0 440 C-0.99 438.515 -0.99 438.515 -2 437 C-3.32 437.66 -4.64 438.32 -6 439 C-6.64886163 395.30165548 -7.09302164 351.60518271 -7.28125 307.90234375 C-7.28840279 306.26205601 -7.28840279 306.26205601 -7.29570007 304.58863115 C-7.37914243 285.42033971 -7.45318088 266.25201321 -7.52606201 247.0836792 C-7.58607677 231.33571522 -7.64945333 215.58776979 -7.71875 199.83984375 C-7.72343796 198.76262416 -7.72812592 197.68540458 -7.73295593 196.57554197 C-7.89186294 160.37813151 -8.26301775 124.19048012 -9 88 C-10.03218658 87.74428726 -11.06437317 87.48857452 -12.12783813 87.22511292 C-19.96904734 85.27724663 -27.79388316 83.28990371 -35.5859375 81.15234375 C-37.50405505 80.62975021 -39.42218716 80.10721008 -41.34033203 79.5847168 C-42.32374573 79.31621918 -43.30715942 79.04772156 -44.32037354 78.77108765 C-61.23266839 74.15583265 -78.16196759 69.61262173 -95.125 65.1875 C-96.85214202 64.73636587 -98.57927429 64.28519441 -100.30639648 63.83398438 C-106.76179242 62.14817269 -113.21760636 60.46397485 -119.67431641 58.78320312 C-123.27244789 57.84595763 -126.86904296 56.9030239 -130.46453857 55.95571899 C-132.378459 55.45300774 -134.29394439 54.95626636 -136.20947266 54.4597168 C-137.33530762 54.16234619 -138.46114258 53.86497559 -139.62109375 53.55859375 C-141.08180298 53.17658813 -141.08180298 53.17658813 -142.57202148 52.78686523 C-145 52 -145 52 -148 50 C-148.1875 46.375 -148.1875 46.375 -148 43 C-147.12085938 42.74347656 -146.24171875 42.48695312 -145.3359375 42.22265625 C-135.54456057 39.35739016 -125.77034982 36.4360429 -116 33.5 C-105.34348732 30.29808694 -94.68009003 27.12238169 -84 24 C-74.99118876 21.36226537 -65.98960077 18.70255353 -57 16 C-42.43842009 11.62682071 -27.85785629 7.36604521 -13.20043945 3.32250977 C-12.1662085 3.03561279 -11.13197754 2.74871582 -10.06640625 2.453125 C-9.13771729 2.19692383 -8.20902832 1.94072266 -7.25219727 1.67675781 C-1.67207792 0 -1.67207792 0 0 0 Z " fill="#DDDDE4" transform="translate(236,28)"/>
<path d="M0 0 C7.04699319 0.75811174 13.93091151 2.09490346 20.875 3.5 C21.51358948 3.6287149 22.15217896 3.75742981 22.81011963 3.89004517 C55.57073991 10.50057228 88.17814142 17.77876183 120.73442078 25.32611084 C123.15565851 25.88681573 125.57770701 26.4438739 128 27 C128.8236203 27.19127472 129.6472406 27.38254944 130.49581909 27.57962036 C131.29182526 27.7616098 132.08783142 27.94359924 132.90795898 28.13110352 C133.61476303 28.29393326 134.32156708 28.456763 135.04978943 28.62452698 C139.0154406 29.38803173 142.1906987 29.2697671 146 28 C146.11435112 73.5559856 146.20250091 119.11195605 146.25532665 164.66805677 C146.26158046 170.04180697 146.26805205 175.41555687 146.2746582 180.78930664 C146.27662553 182.39408638 146.27662553 182.39408638 146.2786326 184.0312859 C146.30041133 201.37252703 146.3398464 218.71368559 146.38576398 236.05487768 C146.43246005 253.83789216 146.46028087 271.62086329 146.47044247 289.40393656 C146.47731587 300.38419889 146.49905358 311.3642279 146.53958233 322.34441843 C146.5659362 329.86573213 146.57401775 337.38692456 146.56750689 344.90828113 C146.56429248 349.2530097 146.56934794 353.59732951 146.59602737 357.94198608 C146.62024888 361.91521945 146.62166088 365.88776683 146.60449447 369.8610309 C146.60237098 371.30254204 146.60880807 372.74409492 146.62441591 374.18552313 C146.64432583 376.13686219 146.63074274 378.08845879 146.61523914 380.03983784 C146.61713775 381.1262177 146.61903635 382.21259757 146.62099248 383.33189803 C146 386 146 386 143.46154755 387.87251014 C142.64923686 388.24458179 141.83692617 388.61665345 141 389 C140.35113837 345.30165548 139.90697836 301.60518271 139.71875 257.90234375 C139.71159721 256.26205601 139.71159721 256.26205601 139.70429993 254.58863115 C139.62085757 235.42033971 139.54681912 216.25201321 139.47393799 197.0836792 C139.41392323 181.33571522 139.35054667 165.58776979 139.28125 149.83984375 C139.27656204 148.76262416 139.27187408 147.68540458 139.26704407 146.57554197 C139.10813706 110.37813151 138.73698225 74.19048012 138 38 C136.96781342 37.74428726 135.93562683 37.48857452 134.87216187 37.22511292 C127.03095266 35.27724663 119.20611684 33.28990371 111.4140625 31.15234375 C109.49594495 30.62975021 107.57781284 30.10721008 105.65966797 29.5847168 C104.67625427 29.31621918 103.69284058 29.04772156 102.67962646 28.77108765 C85.76732516 24.15583089 68.83792283 19.6130565 51.875 15.1875 C50.14858626 14.73638169 48.42218637 14.28521041 46.69580078 13.83398438 C40.23484152 12.14608175 33.77357879 10.4593958 27.30957031 8.78320312 C23.69835086 7.84652817 20.08883549 6.9035539 16.48052979 5.95571899 C14.5558507 5.45211371 12.62926706 4.95580491 10.70263672 4.4597168 C9.5735791 4.16234619 8.44452148 3.86497559 7.28125 3.55859375 C5.81268555 3.17658813 5.81268555 3.17658813 4.31445312 2.78686523 C2 2 2 2 0 0 Z " fill="#F0F0F4" transform="translate(89,78)"/>
<path d="M0 0 C1.98 0 3.96 0 6 0 C6.03197697 10.29165404 6.05143063 20.58330463 6.0625 30.875 C6.06378403 32.05999651 6.06378403 32.05999651 6.06509399 33.26893234 C6.09343337 63.03609714 5.85125541 92.79755992 5.5 122.5625 C5.48804218 123.57621422 5.47608437 124.58992844 5.46376419 125.63436127 C5.31620085 138.08966421 5.16162752 150.54487186 5 163 C6.11969177 163.26119629 7.23938354 163.52239258 8.39300537 163.79150391 C16.03689622 165.57916078 23.67550647 167.36886953 31.265625 169.375 C32.05266815 169.58118454 32.8397113 169.78736908 33.65060425 169.99980164 C36.18432568 170.66431353 38.71718768 171.33203218 41.25 172 C43.04798964 172.47250606 44.84600454 172.94491597 46.64404297 173.41723633 C67.44456983 178.88740481 88.22320735 184.44048755 109 190 C109 193.3 109 196.6 109 200 C101.58744353 198.75052008 94.46914357 197.14314532 87.26171875 195.0234375 C85.77479271 194.59383224 85.77479271 194.59383224 84.25782776 194.1555481 C82.151673 193.54674585 80.04616956 192.93568638 77.94128418 192.32250977 C72.44219955 190.72116312 66.93801081 189.13759121 61.43359375 187.5546875 C60.35195953 187.24339905 59.27032532 186.9321106 58.15591431 186.61138916 C49.54610902 184.14049698 40.91280708 181.77728224 32.25 179.5 C23.70962356 177.25324768 15.18307049 174.9739955 6.6875 172.5625 C5.36830566 172.19125 5.36830566 172.19125 4.02246094 171.8125 C-1.87824736 170.12175264 -1.87824736 170.12175264 -3 169 C-3.09068429 166.93740213 -3.11042343 164.87165975 -3.10287476 162.80708313 C-3.10187594 162.16353563 -3.10087712 161.51998813 -3.09984803 160.8569392 C-3.09529454 158.7161877 -3.08356143 156.57553743 -3.07177734 154.43481445 C-3.067029 152.93065927 -3.06269815 151.42650271 -3.05876732 149.92234516 C-3.04734141 146.03217653 -3.02986899 142.14206016 -3.01065731 138.25192308 C-2.99441795 134.82049502 -2.98296724 131.38905676 -2.9710083 127.95761108 C-2.91255453 112.5932513 -2.81416831 97.22905156 -2.71247292 81.86492443 C-2.65680327 73.431275 -2.6077907 64.99763809 -2.56685698 56.56390399 C-2.53714767 50.55807937 -2.4999571 44.55232881 -2.45720994 38.546583 C-2.43206864 34.98443518 -2.41024338 31.4223406 -2.39665604 27.8601284 C-2.3814836 23.92252033 -2.35087454 19.98511634 -2.31884766 16.04760742 C-2.31668747 14.87953552 -2.31452728 13.71146362 -2.31230164 12.50799561 C-2.30113815 11.43951889 -2.28997467 10.37104218 -2.2784729 9.27018738 C-2.27294214 8.34332217 -2.26741138 7.41645697 -2.26171303 6.46150494 C-1.98674963 3.87537552 -1.30960033 2.22658849 0 0 Z " fill="#ECECF0" transform="translate(92,102)"/>
<path d="M0 0 C7.82049539 0.62884944 15.16212664 2.37937446 22.75390625 4.31640625 C24.09914684 4.65506041 25.44452269 4.99317768 26.7900238 5.33079529 C30.33491844 6.22177011 33.87800002 7.11975262 37.42071533 8.01934814 C40.90511567 8.90298437 44.39106807 9.78044583 47.87695312 10.65820312 C52.72440714 11.87935085 57.57134069 13.1025257 62.41763878 14.32825279 C71.97100381 16.74413266 81.52948882 19.13928846 91.08984375 21.52734375 C91.79872805 21.70441927 92.50761234 21.88149479 93.23797798 22.06393623 C97.15852228 23.04314416 101.07919926 24.02181941 105 25 C105.03229755 35.10415335 105.05152607 45.20830361 105.0625 55.3125 C105.06335602 56.09479351 105.06421204 56.87708702 105.06509399 57.6830864 C105.0953058 89.14511196 104.83561418 120.60245007 104.5 152.0625 C104.48804218 153.18383457 104.47608437 154.30516914 104.46376419 155.46048355 C104.31552418 169.30706197 104.16089154 183.15356299 104 197 C103.34 197 102.68 197 102 197 C101.67 185.12 101.34 173.24 101 161 C98.53660156 160.29617188 96.07320313 159.59234375 93.53515625 158.8671875 C65.69010417 150.91145833 37.84505208 142.95572917 10 135 C14.39347326 133.64541555 17.86135693 134.73987743 22.18359375 135.9140625 C22.9867955 136.12394806 23.78999725 136.33383362 24.61753845 136.55007935 C26.33561178 137.00007679 28.05257076 137.45434647 29.76849365 137.91247559 C33.34375556 138.86693618 36.92424065 139.80098779 40.50463867 140.73596191 C42.26972411 141.19707162 44.03453758 141.65922372 45.79907227 142.12243652 C51.97349469 143.74176841 58.15907988 145.29704292 64.375 146.75 C65.14763184 146.93095215 65.92026367 147.1119043 66.71630859 147.29833984 C68.27767078 147.66312578 69.83919556 148.02721645 71.40087891 148.390625 C76.79335291 149.65491348 82.17717218 150.95567887 87.5625 152.25 C88.64128418 152.5087793 89.72006836 152.76755859 90.83154297 153.03417969 C94.8915547 154.00868659 98.9492944 154.9873236 103 156 C102.505 143.13 102.505 143.13 102 130 C89.98803028 126.4542981 77.98148542 122.95715666 65.875 119.75 C48.49714603 115.14004908 31.25627202 110.04209694 14 105 C17.16043616 103.98467508 19.16995746 104.04876579 22.3684082 104.87695312 C23.23008102 105.09491547 24.09175385 105.31287781 24.97953796 105.53744507 C25.91054825 105.7829007 26.84155853 106.02835632 27.80078125 106.28125 C28.7776741 106.53033112 29.75456696 106.77941223 30.76106262 107.03604126 C32.85842623 107.57152204 34.95474627 108.11110366 37.05010986 108.65435791 C42.50119807 110.06733105 47.95961099 111.45135985 53.41796875 112.8359375 C54.49908936 113.11082001 55.58020996 113.38570251 56.6940918 113.66891479 C67.04873847 116.29008451 77.44795354 118.67137529 87.8840332 120.94335938 C89.01800537 121.19150391 90.15197754 121.43964844 91.3203125 121.6953125 C92.28211426 121.90172363 93.24391602 122.10813477 94.23486328 122.32080078 C97.2018246 123.04957408 100.1016258 124.03387527 103 125 C102.67 116.09 102.34 107.18 102 98 C99.95683594 97.43152344 97.91367188 96.86304688 95.80859375 96.27734375 C83.06384501 92.72216844 70.3277688 89.16424932 57.6875 85.25 C49.29362428 82.65238786 40.86064289 80.32036215 32.3515625 78.1328125 C26.19857725 76.54733032 20.09889824 74.78091808 14 73 C18.44567441 71.62486033 22.02003571 72.75662129 26.40234375 73.9140625 C27.22792282 74.12399338 28.05350189 74.33392426 28.90409851 74.55021667 C31.5841202 75.23344013 34.26068201 75.92934208 36.9375 76.625 C38.77820051 77.09575141 40.61918463 77.56539529 42.46044922 78.03393555 C46.05465907 78.94878719 49.64799875 79.86692912 53.24072266 80.78759766 C58.69012791 82.18026355 64.1508198 83.52062877 69.625 84.8125 C70.78757324 85.08779541 70.78757324 85.08779541 71.97363281 85.36865234 C76.33257714 86.39325371 80.6983274 87.3862085 85.06640625 88.37109375 C86.08718262 88.60143311 87.10795898 88.83177246 88.15966797 89.0690918 C90.13067981 89.51233902 92.10233133 89.95275435 94.07470703 90.38989258 C94.9511084 90.58607178 95.82750977 90.78225098 96.73046875 90.984375 C97.89678833 91.24299316 97.89678833 91.24299316 99.08666992 91.50683594 C101 92 101 92 103 93 C102.67 83.43 102.34 73.86 102 64 C98.59816406 63.04996094 95.19632812 62.09992188 91.69140625 61.12109375 C75.8577151 56.69176154 60.04142189 52.201239 44.22473145 47.71166992 C40.34847886 46.61149854 36.47208396 45.5118288 32.59570312 44.41210938 C25.06366739 42.27521408 17.53178207 40.13778925 10 38 C13.60900246 36.97151618 15.73192373 37.19726483 19.390625 38.15234375 C20.47649902 38.43029785 21.56237305 38.70825195 22.68115234 38.99462891 C23.85887207 39.30577637 25.0365918 39.61692383 26.25 39.9375 C28.13467267 40.42193269 30.0193507 40.90634516 31.90426636 41.38983154 C33.90274832 41.90367453 35.90016732 42.42150022 37.89746094 42.93994141 C44.71384077 44.70571341 51.54448693 46.41489161 58.375 48.125 C59.04735687 48.29379669 59.71971375 48.46259338 60.41244507 48.63650513 C69.97722283 51.03630889 79.55994016 53.33347419 89.19091797 55.45361328 C89.9954541 55.63134277 90.79999023 55.80907227 91.62890625 55.9921875 C92.31025635 56.14026855 92.99160645 56.28834961 93.69360352 56.44091797 C96.82032954 57.19885198 99.90650988 58.11614568 103 59 C103 48.44 103 37.88 103 27 C97.54529111 25.66168599 92.09056358 24.32345061 86.63574219 22.9855957 C81.88995997 21.82144599 77.14456233 20.65574457 72.39941406 19.48901367 C61.31150191 16.76423037 50.22221717 14.04653433 39.120224 11.37960815 C34.57896568 10.28852955 30.03907622 9.19181502 25.49923706 8.09484863 C23.33224521 7.57308211 21.16453633 7.0542846 18.99612427 6.53845215 C15.97997319 5.82072057 12.96636805 5.09310897 9.953125 4.36328125 C9.05462326 4.15236343 8.15612152 3.94144562 7.23039246 3.72413635 C5.13727403 3.21204547 3.0653003 2.61474912 1 2 C0.67 1.34 0.34 0.68 0 0 Z " fill="#BABBCB" transform="translate(99,105)"/>
<path d="M0 0 C5.36426512 0.58924229 10.50960384 1.48401104 15.7421875 2.8203125 C16.46033127 2.99988495 17.17847504 3.1794574 17.91838074 3.36447144 C20.23854097 3.94633283 22.55681 4.53534242 24.875 5.125 C26.48099966 5.53010157 28.08703843 5.93504814 29.69311523 6.33984375 C64.170626 15.05687533 64.170626 15.05687533 73 18 C74.25 24.625 74.25 24.625 72 28 C70.24967156 27.85816304 68.49974466 27.71136571 66.75 27.5625 C65.77546875 27.48128906 64.8009375 27.40007812 63.796875 27.31640625 C61 27 61 27 59.16943359 26.49121094 C56.56820083 25.90223048 54.15919583 25.85524086 51.4921875 25.82421875 C49.88730469 25.78844727 49.88730469 25.78844727 48.25 25.75195312 C46.02362416 25.70943553 43.79700679 25.67794332 41.5703125 25.65820312 C32.62250369 25.42808603 25.16782281 23.84049918 18.1875 18 C13.82368062 14.45327437 9.02339699 13.2210621 3.66015625 11.76171875 C1 11 1 11 0 10 C-0.07205511 8.31391034 -0.08386068 6.62499341 -0.0625 4.9375 C-0.05347656 4.01839844 -0.04445313 3.09929687 -0.03515625 2.15234375 C-0.02355469 1.44207031 -0.01195313 0.73179687 0 0 Z " fill="#747596" transform="translate(110,294)"/>
<path d="M0 0 C4.57438704 0.59012727 8.94765856 1.41064281 13.40234375 2.6015625 C14.61003418 2.92334473 15.81772461 3.24512695 17.06201172 3.57666016 C18.35390108 3.92588513 19.64572909 4.27533714 20.9375 4.625 C22.28399909 4.98623188 23.63051625 5.34739637 24.97705078 5.70849609 C34.10890156 8.16785838 43.1897466 10.77913354 52.25219727 13.48364258 C60.6055134 15.95052229 69.03324713 18.06163053 77.51318359 20.04736328 C78.46531738 20.27536621 79.41745117 20.50336914 80.3984375 20.73828125 C81.24067871 20.93462158 82.08291992 21.13096191 82.95068359 21.33325195 C85 22 85 22 87 24 C80.53987856 26.3263852 74.38320013 26.34639717 67.5625 26.3125 C66.40395508 26.30758545 65.24541016 26.3026709 64.05175781 26.29760742 C41.55801713 25.9917302 19.52834063 19.56768695 2.828125 3.91796875 C1 2 1 2 0 0 Z " fill="#C4C5D3" transform="translate(104,364)"/>
<path d="M0 0 C6.9786925 1.00987559 13.64656344 2.70577074 20.38012695 4.75390625 C29.38624933 7.46655849 38.48709405 9.82963314 47.5793457 12.23291016 C48.82417725 12.56210449 50.06900879 12.89129883 51.3515625 13.23046875 C52.46354004 13.52332764 53.57551758 13.81618652 54.72119141 14.11791992 C58.15885121 15.04273488 61.57954117 16.01371446 65 17 C65 17.66 65 18.32 65 19 C47.88948808 23.97760347 29.35110545 21.11948664 13.76953125 12.78515625 C8.79390525 9.57801791 2.70522239 5.41044478 0 0 Z " fill="#C5C5D3" transform="translate(112,386)"/>
<path d="M0 0 C1.66611905 -0.042721 3.33382885 -0.04063832 5 0 C6.84170695 1.84170695 6.12273009 4.43625379 6.12908131 6.88716656 C6.12616847 7.74026234 6.12325563 8.59335813 6.12025452 9.4723053 C6.12110894 10.37154124 6.12196337 11.27077719 6.12284368 12.1972627 C6.12450125 15.2344742 6.11897262 18.27163142 6.11352539 21.30883789 C6.11324355 23.4764455 6.11340119 25.64405321 6.1139679 27.81166077 C6.114256 33.71638021 6.10835717 39.62107952 6.10139394 45.52579427 C6.09516256 51.68910576 6.09455677 57.85241766 6.09336853 64.01573181 C6.09025457 75.695889 6.08204032 87.37603688 6.07201904 99.05618995 C6.06085989 112.34979226 6.05534796 125.64339431 6.05032361 138.93700039 C6.03985776 166.29133877 6.02225708 193.64566886 6 221 C5.34 221 4.68 221 4 221 C4 148.73 4 76.46 4 2 C2.35 2.33 0.7 2.66 -1 3 C-0.67 2.01 -0.34 1.02 0 0 Z " fill="#100A00" transform="translate(347,219)"/>
<path d="M0 0 C0.99 0.495 0.99 0.495 2 1 C2 72.61 2 144.22 2 218 C2.66 218.33 3.32 218.66 4 219 C2.68 219 1.36 219 0 219 C0 146.73 0 74.46 0 0 Z " fill="#100800" transform="translate(344,221)"/>
<path d="M0 0 C7.82049539 0.62884944 15.16212664 2.37937446 22.75390625 4.31640625 C24.09914684 4.65506041 25.44452269 4.99317768 26.7900238 5.33079529 C30.33491844 6.22177011 33.87800002 7.11975262 37.42071533 8.01934814 C40.90511565 8.90298436 44.39106518 9.7804574 47.87695312 10.65820312 C51.86766614 11.66339358 55.85813136 12.66950436 59.84754944 13.67982483 C74.88961076 17.48889666 89.9461286 21.23653215 105 25 C105 47.77 105 70.54 105 94 C104.67 94 104.34 94 104 94 C103.85445921 87.83348325 103.71222595 81.66690114 103.57275391 75.50024414 C103.52510894 73.41265929 103.47663777 71.32509309 103.42724609 69.23754883 C103.09478432 55.15541805 102.93377763 41.08604907 103 27 C101.63745187 26.66568725 100.27490283 26.33137821 98.91235352 25.99707031 C98.00769852 25.77510483 97.10304352 25.55313934 96.17097473 25.32444763 C94.10164758 24.81677146 92.03230073 24.30917561 89.9629364 23.801651 C84.10805227 22.36563347 78.25347061 20.92840149 72.39941406 19.48901367 C61.31150191 16.76423037 50.22221717 14.04653433 39.120224 11.37960815 C34.57896568 10.28852955 30.03907622 9.19181502 25.49923706 8.09484863 C23.33224521 7.57308211 21.16453633 7.0542846 18.99612427 6.53845215 C15.97997319 5.82072057 12.96636805 5.09310897 9.953125 4.36328125 C9.05462326 4.15236343 8.15612152 3.94144562 7.23039246 3.72413635 C5.13727403 3.21204547 3.0653003 2.61474912 1 2 C0.67 1.34 0.34 0.68 0 0 Z " fill="#C1C2D0" transform="translate(99,105)"/>
<path d="M0 0 C13.2 3.63 26.4 7.26 40 11 C39.67 11.66 39.34 12.32 39 13 C29.10332825 15.6043873 19.1824577 14.28597754 10 10 C1.55663234 4.66989703 1.55663234 4.66989703 0 0 Z " fill="#C5C6D3" transform="translate(124,407)"/>
<path d="M0 0 C5.46145818 0.60001372 10.67295135 1.51829842 16 2.84765625 C16.7211499 3.02380966 17.4422998 3.19996307 18.18530273 3.38145447 C20.4579258 3.937595 22.72896117 4.49992917 25 5.0625 C26.55328409 5.44377242 28.10666871 5.82463553 29.66015625 6.20507812 C33.44128144 7.13199669 37.22099718 8.06446793 41 9 C40.67 9.99 40.34 10.98 40 12 C26.5258297 8.80979203 13.27057929 4.94261198 0 1 C0 0.67 0 0.34 0 0 Z " fill="#BFC0CE" transform="translate(113,209)"/>
<path d="M0 0 C0 0.66 0 1.32 0 2 C-2.18386418 2.67848208 -4.37230084 3.3422551 -6.5625 4 C-7.78066406 4.37125 -8.99882812 4.7425 -10.25390625 5.125 C-16.38714981 6.55758244 -21.3996547 6.128183 -27.4375 4.5 C-28.48808594 4.2215625 -29.53867187 3.943125 -30.62109375 3.65625 C-31.40613281 3.4396875 -32.19117188 3.223125 -33 3 C-33 3.99 -33 4.98 -33 6 C-33.66 6 -34.32 6 -35 6 C-34.67 4.35 -34.34 2.7 -34 1 C-32.60587891 1.34224609 -32.60587891 1.34224609 -31.18359375 1.69140625 C-29.94738281 1.97886719 -28.71117187 2.26632812 -27.4375 2.5625 C-25.61025391 2.99755859 -25.61025391 2.99755859 -23.74609375 3.44140625 C-17.87354301 4.31708379 -12.82160208 3.06863165 -7.1875 1.4375 C-2.20095694 0 -2.20095694 0 0 0 Z " fill="#0F0900" transform="translate(379,457)"/>
<path d="M0 0 C0.33 0 0.66 0 1 0 C1 1.98 1 3.96 1 6 C-4.94 4.515 -4.94 4.515 -11 3 C-11 2.67 -11 2.34 -11 2 C-10.28972656 1.93941406 -9.57945312 1.87882812 -8.84765625 1.81640625 C-7.46900391 1.69072266 -7.46900391 1.69072266 -6.0625 1.5625 C-5.14597656 1.48128906 -4.22945312 1.40007812 -3.28515625 1.31640625 C-1.03840268 1.23955024 -1.03840268 1.23955024 0 0 Z " fill="#40456F" transform="translate(235,468)"/>
</svg>
